<svg width="944" height="1020" viewBox="0 0 944 1020" fill="none" xmlns="http://www.w3.org/2000/svg">
    <path d="M342.828 828.096C320.021 840.303 311.359 870.227 326.265 887.31C356.935 922.463 483.195 905.098 489.136 881.27C494.988 857.795 390.42 802.617 342.828 828.096Z" stroke="white" stroke-width="0.5" stroke-miterlimit="10"/>
    <path d="M399.342 749.909C451.438 726.581 538.913 892.665 502.806 931.875C480.606 955.986 426.864 952.973 383.038 945.049C341.895 937.612 283.108 907.201 268.604 856.694C260.924 829.881 265.534 791.68 281.799 778.302C294.387 767.951 311.381 772.608 315.129 770.886C333.001 780.362 335.624 784.045 349.862 786.268C368.474 789.175 385.015 756.322 399.342 749.909Z" stroke="white" stroke-width="0.5" stroke-miterlimit="10"/>
    <path d="M452.2 668.221C512.705 680.569 578.455 923.154 512.821 978.981C471.021 1014.54 398.149 998.837 347.356 980.039C300.698 962.773 223.006 905.154 207.287 822.578C198.15 774.597 209.253 707.1 241.065 687.576C266.423 672.017 299.096 685.396 304.849 686.426C338.853 709.809 341.603 721.706 366.922 729.714C400.446 740.305 426.914 663.035 452.2 668.221Z" stroke="white" stroke-width="0.5" stroke-miterlimit="10"/>
    <path d="M501.227 587.078C568.031 609.84 614.165 953.989 519.004 1026.62C457.588 1073.5 365.564 1045.38 307.842 1015.57C255.624 988.606 159.354 903.764 142.139 788.999C131.754 719.787 149.085 623.141 196.494 597.386C234.589 576.684 283.24 597.93 290.727 602.502C343.066 634.487 343.728 659.902 380.167 673.697C428.57 692.071 466.24 575.181 501.227 587.078Z" stroke="white" stroke-width="0.5" stroke-miterlimit="10"/>
    <path d="M547.305 509.624C621.287 542.463 646.805 988.168 522.24 1077.96C441.125 1135.91 329.987 1095.69 265.385 1054.8C207.547 1018.2 92.8199 906.142 74.0208 759.11C62.4653 668.729 85.9462 542.9 148.958 510.873C199.812 485.048 264.054 515.339 273.644 522.247C341.111 570.849 342.856 601.895 390.403 621.377C453.696 647.533 503.021 489.973 547.305 509.624Z" stroke="white" stroke-width="0.5" stroke-miterlimit="10"/>
    <path d="M99.3513 425.39C162.942 394.449 242.738 433.744 254.492 443.03C336.904 508.142 339.952 544.685 398.591 570.037C476.785 603.843 538.057 405.209 591.275 433.151C673.019 476.073 677.607 1023.91 523.366 1130.28C422.723 1199.69 292.256 1147.03 220.814 1095C157.366 1048.81 24.2653 909.536 3.83753 730.208C-8.86082 618.667 20.7264 463.64 99.3513 425.39Z" stroke="white" stroke-width="0.5" stroke-miterlimit="10"/>
    <path d="M787.47 368.942C762.421 368.674 732.381 313.15 754.846 303.879C767.82 298.516 802.172 306.997 815.665 322.09C834.669 343.329 804.706 369.132 787.47 368.942Z" stroke="white" stroke-width="0.5" stroke-miterlimit="10"/>
    <path d="M719.395 311.654C721.847 304.203 733.325 300.894 743.798 291.82C765.043 273.404 768.091 264.654 783.18 253.548C789.065 249.209 796.982 243.507 804.712 246.118C816.549 250.119 819.503 267.434 834.525 297.93C854.004 337.557 861.38 347.802 855.814 368.801C854.517 373.683 852.839 389.496 843.458 399.141C830.467 412.477 815.24 402.175 796.204 411.002C773.341 421.586 762.007 440.426 752.085 432.1C745.096 426.236 744.836 410.177 739.602 382.214C735.616 360.912 733.11 346.934 728.262 335.532C722.449 321.956 716.668 319.938 719.395 311.654Z" stroke="white" stroke-width="0.5" stroke-miterlimit="10"/>
    <path d="M681.107 327.184C681.532 313.976 697.764 307.583 711.142 288.496C738.576 249.343 725.866 221.366 747.856 192.761C757.187 180.617 771.829 168.855 786.504 171.134C807.329 174.373 814.324 201.87 846.385 257.619C888.3 330.508 906.155 344.782 902.241 383.625C901.44 391.542 900.662 421.939 884.281 440.235C862.434 464.635 836.248 442.437 802.045 460.775C763.829 481.238 749.546 524.985 736.66 515.932C727.71 509.645 731.139 484.328 724.26 434.95C719.39 399.854 716.381 379.342 706.647 362.542C694.363 341.353 680.649 341.529 681.107 327.184Z" stroke="white" stroke-width="0.5" stroke-miterlimit="10"/>
    <path d="M642.78 342.545C641.124 323.614 662.142 314.095 678.446 284.997C712.014 225.091 683.073 178.268 712.494 131.797C725.088 111.913 746.686 94.1251 768.257 95.9808C798.153 98.5492 809.2 136.017 858.249 217.139C922.735 323.134 950.506 341.797 948.684 398.28C948.325 409.295 948.49 454.199 925.12 481.181C894.412 516.623 857.211 482.487 807.909 510.393C754.299 540.734 737.118 609.367 721.228 599.616C710.324 592.87 717.309 558.324 708.911 487.532C703.114 438.641 699.619 411.694 685.022 389.397C666.206 360.665 644.553 362.937 642.78 342.545Z" stroke="white" stroke-width="0.5" stroke-miterlimit="10"/>
    <path d="M604.365 357.864C600.649 333.231 626.394 320.552 645.662 281.462C685.292 200.769 640.058 135.283 677.049 70.798C692.862 43.2091 721.471 19.3881 749.927 20.7852C788.916 22.7044 803.84 70.2688 870.004 176.624C956.855 315.909 994.652 338.911 994.989 412.901C995.055 427.013 996.148 486.382 965.815 522.085C926.208 568.527 878.064 522.473 813.628 559.976C744.616 600.152 724.536 693.736 705.709 683.265C692.845 676.082 703.39 632.278 693.474 540.078C686.733 477.385 682.775 444.039 663.313 416.217C637.949 379.977 608.362 384.352 604.365 357.864Z" stroke="white" stroke-width="0.5" stroke-miterlimit="10"/>
    <path d="M565.878 373.175C572.1 405.774 609.61 399.282 641.516 443.03C665.847 476.383 670.269 516.115 677.955 592.616C689.367 706.218 675.277 759.286 690.101 766.899C711.892 778.097 734.865 659.557 819.293 609.551C898.829 562.445 958.014 620.516 1006.46 562.981C1043.8 518.62 1041.72 444.786 1041.24 427.506C1038.67 336.033 990.903 308.669 881.681 136.094C798.396 4.50703 779.613 -53.1404 731.509 -54.4175C696.174 -55.356 660.536 -25.488 641.516 9.79198C596.978 92.347 658.592 176.532 612.807 277.919C590.618 327.05 560.086 342.849 565.878 373.175Z" stroke="white" stroke-width="0.5" stroke-miterlimit="10"/>
    <path d="M884.192 897.858C877.656 893.625 863.93 901.782 862.716 914.489C861.341 928.905 876.872 940.829 883.696 937.125C891.767 932.736 892.866 903.461 884.192 897.858Z" stroke="white" stroke-width="0.5" stroke-miterlimit="10"/>
    <path d="M902.611 974.451C913.752 961.136 918.622 936.702 924.192 894.817C929.713 853.286 928.847 823.552 923.994 821.393C921.349 820.228 913.857 829.338 907.431 836.013C895.4 848.474 874.807 847.091 869.529 848.438C850.205 853.377 844.529 862.55 836.452 880.12C832.714 888.234 823.997 906.227 820.16 927.395C814.307 959.45 788.077 969.328 791.274 982.177C793.962 992.902 819.95 995.506 836.8 995.81C860.949 996.247 885.385 995.012 902.611 974.451Z" stroke="white" stroke-width="0.5" stroke-miterlimit="10"/>
    <path d="M921.923 1010.25C940.236 986.453 947.441 946.524 958.539 871.85C969.813 796.817 969.741 745.35 964.187 743.431C960.018 741.963 946.519 760.514 935.047 773.772C913.421 798.87 874.707 794.742 866.73 796.351C830.346 803.534 821.38 820.743 807.279 853.272C801.405 866.819 785.289 899.841 777.946 938.84C766.644 998.583 713.063 1014.23 717.496 1036.37C721.201 1054.82 770.89 1057.65 802.156 1056.13C846.302 1053.94 890.978 1050.47 921.923 1010.25Z" stroke="white" stroke-width="0.5" stroke-miterlimit="10"/>
    <path d="M941.131 1045.81C966.632 1011.54 976.09 956.092 992.775 848.65C1009.72 740.094 1010.51 667.015 1004.27 665.194C998.555 663.501 979.06 691.443 962.575 711.319C931.408 749.118 874.525 742.168 863.842 743.989C810.41 753.105 798.103 778.598 778.018 826.155C770.001 845.129 746.498 893.187 735.638 949.995C718.904 1037.43 637.966 1058.83 643.625 1090.28C648.351 1116.45 721.753 1119.61 767.423 1116.15C831.555 1111.53 896.538 1105.73 941.131 1045.81Z" stroke="white" stroke-width="0.5" stroke-miterlimit="10"/>
    <path d="M960.278 1081.35C992.984 1036.61 1004.68 965.631 1026.96 825.422C1049.59 683.356 1051.25 588.686 1044.3 586.929C1037.04 585.074 1011.53 622.294 990.047 648.803C949.28 699.218 874.293 689.516 860.905 691.598C790.423 702.528 774.683 736.368 748.701 799.004C738.509 823.39 707.652 886.498 693.287 961.122C671.103 1076.25 562.808 1103.4 569.709 1144.16C575.446 1178.03 672.561 1181.41 732.64 1176.15C816.731 1168.9 902.059 1160.99 960.278 1081.35Z" stroke="white" stroke-width="0.5" stroke-miterlimit="10"/>
    <path d="M857.94 639.186C770.415 651.887 751.384 694.223 719.362 771.839C707.05 801.678 668.779 879.795 650.902 972.229C623.297 1115.06 487.628 1147.96 495.761 1198.02C502.519 1239.65 623.341 1243.18 697.83 1236.12C801.913 1226.24 907.569 1216.24 979.403 1116.88C1019.31 1061.66 1033.25 975.171 1061.11 802.179C1089.4 626.598 1091.92 510.358 1084.3 508.65C1075.47 506.675 1044 553.103 1017.5 586.266C967.124 649.29 874.039 636.85 857.94 639.186Z" stroke="white" stroke-width="0.5" stroke-miterlimit="10"/>
    <path d="M146.28 299.793C156.218 348.479 227.549 325.611 312.463 435.268C342.889 474.563 363.289 515.664 403.56 522.057C407.623 522.699 447.965 528.336 476.437 495.244C512.258 453.613 490.394 395.86 532.2 315.316C547.598 285.646 550.16 294.261 561.461 270.863C609.693 170.986 536.131 69.5914 578.576 -31.8384C598.115 -78.5278 627.161 -89.2459 624.401 -95.3422C612.486 -121.499 119.426 168.601 146.28 299.793Z" stroke="white" stroke-width="0.5" stroke-miterlimit="10"/>
    <path d="M414.602 455.497C417.042 455.074 443.642 457.614 461.889 434.217C484.962 404.673 468.515 363.995 494.949 309.079C504.677 288.856 506.03 294.339 512.953 278.343C542.491 210.083 489.478 141.414 515.438 74.5941C527.452 43.6607 546.416 36.5694 543.595 33.5495C530.836 19.7762 205.388 223.25 230.95 311.788C240.535 344.994 292.858 333.21 352.728 404.73C374.497 430.717 389.238 459.893 414.602 455.497Z" stroke="white" stroke-width="0.5" stroke-miterlimit="10"/>
    <path d="M425.644 388.931C426.34 386.695 439.347 386.744 447.341 373.189C457.721 355.606 446.668 332.18 457.699 302.848C461.746 292.081 461.911 294.381 464.451 285.822C475.355 249.011 442.781 213.28 452.305 181.02C456.76 165.835 465.042 163.246 462.833 162.434C446.69 165.362 291.682 278.096 315.593 323.783C324.929 341.635 358.348 340.781 392.965 374.191C406.121 386.892 414.734 396.192 425.644 388.931Z" stroke="white" stroke-width="0.5" stroke-miterlimit="10"/>
    <path d="M436.686 322.372C428.117 290.373 394.384 279.493 382.028 291.326C363.808 308.796 379.35 331.545 400.247 335.779C415.866 338.918 446.491 358.993 436.686 322.372Z" stroke="white" stroke-width="0.5" stroke-miterlimit="10"/>
</svg>